<svg width="348" height="196" viewBox="0 0 348 196" fill="none" xmlns="http://www.w3.org/2000/svg">
<path d="M288.744 21.3464C288.745 22.0917 288.562 22.8207 288.217 23.4413C287.871 24.0618 287.379 24.546 286.803 24.8326C286.228 25.1191 285.593 25.195 284.981 25.0508C284.369 24.9066 283.807 24.5487 283.365 24.0224C282.923 23.4961 282.622 22.8251 282.5 22.0944C282.378 21.3636 282.44 20.6059 282.678 19.9172C282.917 19.2285 283.321 18.6398 283.839 18.2256C284.358 17.8114 284.968 17.5902 285.591 17.5902C286.426 17.5902 287.227 17.9857 287.818 18.6898C288.409 19.394 288.742 20.3493 288.744 21.3464Z" fill="#60D290"/>
<path d="M211.951 26.6516C211.949 27.3941 211.763 28.1194 211.417 28.7358C211.07 29.3522 210.579 29.8321 210.004 30.115C209.429 30.3978 208.797 30.4708 208.188 30.3248C207.579 30.1787 207.019 29.8202 206.58 29.2945C206.141 28.7688 205.843 28.0995 205.722 27.3712C205.601 26.6428 205.664 25.888 205.902 25.2023C206.14 24.5165 206.543 23.9304 207.06 23.5181C207.577 23.1058 208.185 22.8857 208.806 22.8857C209.22 22.8857 209.63 22.9832 210.012 23.1726C210.394 23.3619 210.741 23.6395 211.033 23.9893C211.325 24.3391 211.556 24.7543 211.714 25.2112C211.871 25.668 211.952 26.1575 211.951 26.6516Z" fill="#60D290"/>
<path d="M171.779 75.0756C171.781 75.8208 171.598 76.5499 171.252 77.1704C170.907 77.791 170.415 78.2752 169.839 78.5617C169.263 78.8482 168.629 78.9242 168.017 78.78C167.405 78.6357 166.842 78.2778 166.401 77.7516C165.959 77.2253 165.658 76.5543 165.536 75.8235C165.413 75.0927 165.475 74.3351 165.714 73.6464C165.952 72.9577 166.356 72.369 166.875 71.9547C167.393 71.5405 168.003 71.3194 168.627 71.3194C169.041 71.3181 169.45 71.4143 169.833 71.6025C170.215 71.7907 170.563 72.0672 170.856 72.4161C171.148 72.765 171.381 73.1795 171.539 73.6359C171.698 74.0923 171.779 74.5815 171.779 75.0756Z" fill="#60D290"/>
<path d="M13.8254 192.244C13.8254 192.987 13.641 193.713 13.2955 194.331C12.95 194.948 12.4589 195.43 11.8844 195.714C11.3098 195.998 10.6776 196.073 10.0676 195.928C9.45771 195.783 8.89744 195.425 8.4577 194.9C8.01796 194.374 7.71849 193.705 7.59716 192.977C7.47584 192.248 7.53811 191.493 7.77609 190.806C8.01408 190.12 8.4171 189.533 8.93418 189.121C9.45126 188.708 10.0592 188.488 10.6811 188.488C11.5144 188.49 12.3129 188.887 12.9021 189.591C13.4913 190.294 13.8233 191.248 13.8254 192.244Z" fill="#60D290"/>
<path d="M69.3456 3.7562C69.3456 4.49911 69.1611 5.22533 68.8156 5.84303C68.4701 6.46074 67.9791 6.94218 67.4045 7.22647C66.83 7.51077 66.1977 7.58516 65.5878 7.44022C64.9778 7.29529 64.4176 6.93754 63.9778 6.41223C63.5381 5.88692 63.2386 5.21763 63.1173 4.489C62.996 3.76037 63.0582 3.00512 63.2962 2.31876C63.5342 1.63241 63.9372 1.04577 64.4543 0.633036C64.9714 0.220299 65.5793 0 66.2012 0C67.0345 0.00255565 67.833 0.399119 68.4222 1.10299C69.0115 1.80686 69.3434 2.76078 69.3456 3.7562Z" fill="#60D290"/>
<path d="M348 191.266C348.002 192.012 347.818 192.741 347.472 193.362C347.126 193.983 346.634 194.467 346.058 194.753C345.481 195.039 344.847 195.115 344.234 194.97C343.622 194.825 343.06 194.466 342.618 193.939C342.177 193.411 341.877 192.739 341.755 192.008C341.634 191.277 341.697 190.519 341.937 189.83C342.176 189.142 342.581 188.553 343.101 188.14C343.621 187.727 344.231 187.508 344.856 187.51C345.689 187.512 346.487 187.909 347.077 188.613C347.666 189.317 347.998 190.271 348 191.266Z" fill="#60D290"/>
<path d="M253.111 100.836C251.476 100.838 249.877 100.261 248.516 99.177C247.156 98.0932 246.095 96.5516 245.468 94.7475C244.841 92.9433 244.676 90.9576 244.995 89.0415C245.313 87.1254 246.099 85.365 247.255 83.983C248.411 82.6011 249.883 81.6596 251.487 81.2779C253.091 80.8961 254.753 81.091 256.264 81.8381C257.775 82.5852 259.066 83.8509 259.975 85.4749C260.884 87.099 261.369 89.0085 261.369 90.962C261.364 93.5776 260.493 96.0848 258.946 97.9352C257.398 99.7857 255.3 100.829 253.111 100.836ZM253.111 82.6557C251.736 82.6557 250.391 83.1429 249.248 84.0556C248.104 84.9683 247.213 86.2655 246.687 87.7833C246.161 89.3011 246.023 90.9712 246.291 92.5824C246.56 94.1937 247.222 95.6737 248.194 96.8353C249.167 97.997 250.406 98.7881 251.754 99.1086C253.103 99.4291 254.501 99.2646 255.772 98.6359C257.042 98.0072 258.128 96.9426 258.892 95.5766C259.656 94.2107 260.064 92.6048 260.064 90.962C260.065 89.8699 259.886 88.7883 259.537 87.7788C259.188 86.7694 258.676 85.852 258.031 85.0789C257.385 84.3058 256.618 83.6922 255.774 83.2731C254.93 82.854 254.025 82.6376 253.111 82.6364V82.6557Z" fill="#60D290"/>
<path d="M8.26604 49.4018C6.63117 49.4018 5.03302 48.8227 3.67367 47.7376C2.31433 46.6526 1.25486 45.1104 0.629219 43.3061C0.00358271 41.5017 -0.160114 39.5163 0.158833 37.6008C0.47778 35.6853 1.26504 33.9259 2.42107 32.5449C3.57709 31.1639 5.04996 30.2234 6.65341 29.8424C8.25687 29.4614 9.91889 29.657 11.4293 30.4044C12.9397 31.1517 14.2307 32.4174 15.139 34.0412C16.0473 35.6651 16.5321 37.5742 16.5321 39.5272C16.5299 42.1453 15.6584 44.6555 14.1086 46.5068C12.5589 48.358 10.4577 49.3992 8.26604 49.4018ZM8.26604 31.221C6.89083 31.221 5.5465 31.7082 4.40305 32.6209C3.2596 33.5336 2.36839 34.8308 1.84212 36.3486C1.31585 37.8664 1.17816 39.5365 1.44645 41.1477C1.71474 42.759 2.37697 44.239 3.34939 45.4006C4.32181 46.5623 5.56075 47.3534 6.90954 47.6739C8.25833 47.9944 9.65638 47.8299 10.9269 47.2012C12.1974 46.5725 13.2834 45.5079 14.0474 44.1419C14.8114 42.776 15.2192 41.1701 15.2192 39.5272C15.2171 37.3251 14.4838 35.2138 13.1803 33.6567C11.8768 32.0995 10.1095 31.2236 8.26604 31.221Z" fill="#60D290"/>
<path d="M339.029 73.7686C337.394 73.7706 335.795 73.1931 334.434 72.1092C333.074 71.0253 332.013 69.4838 331.386 67.6796C330.759 65.8755 330.594 63.8897 330.912 61.9736C331.231 60.0575 332.017 58.2971 333.173 56.9152C334.329 55.5332 335.801 54.5918 337.405 54.21C339.009 53.8282 340.671 54.0232 342.182 54.7703C343.693 55.5174 344.984 56.783 345.893 58.4071C346.802 60.0312 347.287 61.9407 347.287 63.8941C347.285 66.5105 346.414 69.0192 344.866 70.8702C343.318 72.7212 341.219 73.7635 339.029 73.7686ZM339.029 55.5879C337.651 55.586 336.304 56.0723 335.158 56.9853C334.012 57.8984 333.119 59.197 332.591 60.7169C332.063 62.2369 331.924 63.9097 332.193 65.5238C332.461 67.1378 333.124 68.6204 334.098 69.784C335.072 70.9476 336.313 71.7398 337.665 72.0604C339.016 72.3809 340.416 72.2154 341.688 71.5848C342.961 70.9542 344.048 69.8868 344.812 68.5178C345.576 67.1488 345.984 65.5397 345.982 63.8941C345.98 61.6919 345.247 59.5807 343.943 58.0235C342.64 56.4664 340.872 55.5904 339.029 55.5879Z" fill="#60D290"/>
<path d="M132.548 41.0858C130.913 41.0877 129.313 40.51 127.953 39.4257C126.592 38.3414 125.532 36.7993 124.905 34.9946C124.278 33.1898 124.114 31.2036 124.433 29.2872C124.751 27.3708 125.539 25.6105 126.695 24.2289C127.852 22.8473 129.325 21.9067 130.93 21.526C132.534 21.1453 134.196 21.3416 135.707 22.0902C137.218 22.8388 138.509 24.106 139.417 25.7313C140.324 27.3566 140.808 29.2671 140.806 31.2209C140.804 33.8365 139.933 36.3441 138.385 38.1936C136.837 40.0431 134.738 41.0832 132.548 41.0858ZM132.548 22.9147C131.173 22.9147 129.829 23.4019 128.685 24.3146C127.542 25.2273 126.651 26.5245 126.124 28.0423C125.598 29.56 125.46 31.2302 125.729 32.8414C125.997 34.4527 126.659 35.9327 127.632 37.0943C128.604 38.256 129.843 39.0471 131.192 39.3676C132.541 39.6881 133.939 39.5236 135.209 38.8949C136.48 38.2662 137.566 37.2016 138.33 35.8356C139.094 34.4697 139.502 32.8638 139.502 31.2209C139.499 29.0188 138.766 26.9075 137.463 25.3504C136.159 23.7932 134.392 22.9173 132.548 22.9147Z" fill="#60D290"/>
</svg>
